<svg xmlns="http://www.w3.org/2000/svg" xmlns:xlink="http://www.w3.org/1999/xlink" contentStyleType="text/css" data-diagram-type="CLASS" height="1129px" preserveAspectRatio="none" style="width:953px;height:1129px;background:#FFFFFF;" version="1.1" viewBox="0 0 953 1129" width="953px" zoomAndPan="magnify"><defs/><g><!--class Button--><g class="entity" data-entity="Button" data-source-line="6" data-uid="ent0002" id="entity_Button"><rect fill="#F1F1F1" height="227.2656" rx="2.5" ry="2.5" style="stroke:#181818;stroke-width:0.5;" width="376.7178" x="524.85" y="7"/><ellipse cx="685.5116" cy="23" fill="#ADD1B2" rx="11" ry="11" style="stroke:#181818;stroke-width:1;"/><path d="M688.4804,28.6406 Q687.9022,28.9375 687.2616,29.0781 Q686.621,29.2344 685.9179,29.2344 Q683.4179,29.2344 682.0897,27.5938 Q680.7772,25.9375 680.7772,22.8125 Q680.7772,19.6875 682.0897,18.0313 Q683.4179,16.375 685.9179,16.375 Q686.621,16.375 687.2616,16.5313 Q687.9179,16.6875 688.4804,16.9844 L688.4804,19.7031 Q687.8554,19.125 687.2616,18.8594 Q686.6679,18.5781 686.0429,18.5781 Q684.6991,18.5781 684.0116,19.6563 Q683.3241,20.7188 683.3241,22.8125 Q683.3241,24.9063 684.0116,25.9844 Q684.6991,27.0469 686.0429,27.0469 Q686.6679,27.0469 687.2616,26.7813 Q687.8554,26.5 688.4804,25.9219 L688.4804,28.6406 Z " fill="#000000"/><text fill="#000000" font-family="sans-serif" font-size="14" lengthAdjust="spacing" textLength="46.8945" x="706.0116" y="27.8467">Button</text><line style="stroke:#181818;stroke-width:0.5;" x1="525.85" x2="900.5678" y1="39" y2="39"/><rect fill="none" height="6" style="stroke:#C82930;stroke-width:1;" width="6" x="532.85" y="49.6484"/><text fill="#000000" font-family="sans-serif" font-size="14" lengthAdjust="spacing" textLength="150.6982" x="544.85" y="55.9951">gpiod_chip *chipGPIO</text><rect fill="none" height="6" style="stroke:#C82930;stroke-width:1;" width="6" x="532.85" y="65.9453"/><text fill="#000000" font-family="sans-serif" font-size="14" lengthAdjust="spacing" textLength="138.9199" x="544.85" y="72.292">gpiod_line *pinGPIO</text><rect fill="none" height="6" style="stroke:#C82930;stroke-width:1;" width="6" x="532.85" y="82.2422"/><text fill="#000000" font-family="sans-serif" font-size="14" lengthAdjust="spacing" textLength="103.5371" x="544.85" y="88.5889">bool isRunning</text><rect fill="none" height="6" style="stroke:#C82930;stroke-width:1;" width="6" x="532.85" y="98.5391"/><text fill="#000000" font-family="sans-serif" font-size="14" lengthAdjust="spacing" textLength="127.9482" x="544.85" y="104.8857">std::thread thread</text><rect fill="none" height="6" style="stroke:#C82930;stroke-width:1;" width="6" x="532.85" y="114.8359"/><text fill="#000000" font-family="sans-serif" font-size="14" lengthAdjust="spacing" textLength="344.0186" x="544.85" y="121.1826">std::vector&lt;ButtonCallbackInterface*&gt; callbacks</text><line style="stroke:#181818;stroke-width:0.5;" x1="525.85" x2="900.5678" y1="128.4844" y2="128.4844"/><ellipse cx="535.85" cy="142.1328" fill="#84BE84" rx="3" ry="3" style="stroke:#038048;stroke-width:1;"/><text fill="#000000" font-family="sans-serif" font-size="14" lengthAdjust="spacing" textLength="243.25" x="544.85" y="145.4795">void start(int pinNo, int chipName)</text><ellipse cx="535.85" cy="158.4297" fill="#84BE84" rx="3" ry="3" style="stroke:#038048;stroke-width:1;"/><text fill="#000000" font-family="sans-serif" font-size="14" lengthAdjust="spacing" textLength="350.7178" x="544.85" y="161.7764">void registerCallback(ButtonCallbackInterface* ci)</text><ellipse cx="535.85" cy="174.7266" fill="#84BE84" rx="3" ry="3" style="stroke:#038048;stroke-width:1;"/><text fill="#000000" font-family="sans-serif" font-size="14" lengthAdjust="spacing" textLength="75.2363" x="544.85" y="178.0732">void stop()</text><ellipse cx="535.85" cy="191.0234" fill="#84BE84" rx="3" ry="3" style="stroke:#038048;stroke-width:1;"/><text fill="#000000" font-family="sans-serif" font-size="14" lengthAdjust="spacing" textLength="69.5488" x="544.85" y="194.3701">~Button()</text><rect fill="#F24D5C" height="6" style="stroke:#C82930;stroke-width:1;" width="6" x="532.85" y="204.3203"/><text fill="#000000" font-family="sans-serif" font-size="14" lengthAdjust="spacing" textLength="241.9648" x="544.85" y="210.667">onEvent(gpiod_line_event&amp; event)</text><rect fill="#F24D5C" height="6" style="stroke:#C82930;stroke-width:1;" width="6" x="532.85" y="220.6172"/><text fill="#000000" font-family="sans-serif" font-size="14" lengthAdjust="spacing" textLength="93.249" x="544.85" y="226.9639">void worker()</text></g><!--class ButtonCallbackInterface--><g class="entity" data-entity="ButtonCallbackInterface" data-source-line="26" data-uid="ent0003" id="entity_ButtonCallbackInterface"><rect fill="#F1F1F1" height="64.2969" rx="2.5" ry="2.5" style="stroke:#181818;stroke-width:0.5;" width="261.2725" x="582.57" y="326.86"/><ellipse cx="624.7027" cy="342.86" fill="#A9DCDF" rx="11" ry="11" style="stroke:#181818;stroke-width:1;"/><path d="M624.8121,338.2037 L623.6558,343.2819 L625.984,343.2819 L624.8121,338.2037 Z M623.3277,335.9694 L626.3121,335.9694 L629.6715,348.36 L627.2183,348.36 L626.4527,345.2975 L623.1715,345.2975 L622.4215,348.36 L619.984,348.36 L623.3277,335.9694 Z " fill="#000000"/><text fill="#000000" font-family="sans-serif" font-size="14" font-style="italic" lengthAdjust="spacing" textLength="168.9775" x="644.7322" y="347.7067">ButtonCallbackInterface</text><line style="stroke:#181818;stroke-width:0.5;" x1="583.57" x2="842.8425" y1="358.86" y2="358.86"/><line style="stroke:#181818;stroke-width:0.5;" x1="583.57" x2="842.8425" y1="366.86" y2="366.86"/><text fill="#000000" font-family="sans-serif" font-size="14" font-style="italic" lengthAdjust="spacing" textLength="249.2725" x="588.57" y="383.8551">hasEvent(gpiod_line_event&amp; event)</text></g><!--class MPU6050--><g class="entity" data-entity="MPU6050" data-source-line="35" data-uid="ent0005" id="entity_MPU6050"><rect fill="#F1F1F1" height="210.9688" rx="2.5" ry="2.5" style="stroke:#181818;stroke-width:0.5;" width="466.1729" x="480.12" y="483.75"/><ellipse cx="675.7577" cy="499.75" fill="#ADD1B2" rx="11" ry="11" style="stroke:#181818;stroke-width:1;"/><path d="M678.7264,505.3906 Q678.1483,505.6875 677.5077,505.8281 Q676.8671,505.9844 676.1639,505.9844 Q673.6639,505.9844 672.3358,504.3437 Q671.0233,502.6875 671.0233,499.5625 Q671.0233,496.4375 672.3358,494.7812 Q673.6639,493.125 676.1639,493.125 Q676.8671,493.125 677.5077,493.2812 Q678.1639,493.4375 678.7264,493.7344 L678.7264,496.4531 Q678.1014,495.875 677.5077,495.6094 Q676.9139,495.3281 676.2889,495.3281 Q674.9452,495.3281 674.2577,496.4062 Q673.5702,497.4687 673.5702,499.5625 Q673.5702,501.6562 674.2577,502.7344 Q674.9452,503.7969 676.2889,503.7969 Q676.9139,503.7969 677.5077,503.5312 Q678.1014,503.25 678.7264,502.6719 L678.7264,505.3906 Z " fill="#000000"/><text fill="#000000" font-family="sans-serif" font-size="14" lengthAdjust="spacing" textLength="66.3975" x="696.2577" y="504.5967">MPU6050</text><line style="stroke:#181818;stroke-width:0.5;" x1="481.12" x2="945.2929" y1="515.75" y2="515.75"/><rect fill="none" height="6" style="stroke:#C82930;stroke-width:1;" width="6" x="488.12" y="526.3984"/><text fill="#000000" font-family="sans-serif" font-size="14" lengthAdjust="spacing" textLength="440.1729" x="500.12" y="532.7451">std::vector&lt;ControllerCallbackInterface*&gt; registeredCallbacks</text><rect fill="none" height="6" style="stroke:#C82930;stroke-width:1;" width="6" x="488.12" y="542.6953"/><text fill="#000000" font-family="sans-serif" font-size="14" lengthAdjust="spacing" textLength="78.0117" x="500.12" y="549.042">int address</text><line style="stroke:#181818;stroke-width:0.5;" x1="481.12" x2="945.2929" y1="556.3437" y2="556.3437"/><ellipse cx="491.12" cy="569.9922" fill="#84BE84" rx="3" ry="3" style="stroke:#038048;stroke-width:1;"/><text fill="#000000" font-family="sans-serif" font-size="14" lengthAdjust="spacing" textLength="283.3496" x="500.12" y="573.3389">void hasEvent(gpiod_line_event&amp; event)</text><ellipse cx="491.12" cy="586.2891" fill="#84BE84" rx="3" ry="3" style="stroke:#038048;stroke-width:1;"/><text fill="#000000" font-family="sans-serif" font-size="14" lengthAdjust="spacing" textLength="77.6084" x="500.12" y="589.6357">void start()</text><ellipse cx="491.12" cy="602.5859" fill="#84BE84" rx="3" ry="3" style="stroke:#038048;stroke-width:1;"/><text fill="#000000" font-family="sans-serif" font-size="14" lengthAdjust="spacing" textLength="329.7451" x="500.12" y="605.9326">void registerCallback(SynthConfigInterface* ci)</text><ellipse cx="491.12" cy="618.8828" fill="#84BE84" rx="3" ry="3" style="stroke:#038048;stroke-width:1;"/><text fill="#000000" font-family="sans-serif" font-size="14" lengthAdjust="spacing" textLength="75.2363" x="500.12" y="622.2295">void stop()</text><ellipse cx="491.12" cy="635.1797" fill="#84BE84" rx="3" ry="3" style="stroke:#038048;stroke-width:1;"/><text fill="#000000" font-family="sans-serif" font-size="14" lengthAdjust="spacing" textLength="89.0518" x="500.12" y="638.5264">~MPU6050()</text><ellipse cx="491.12" cy="651.4766" fill="#84BE84" rx="3" ry="3" style="stroke:#038048;stroke-width:1;"/><text fill="#000000" font-family="sans-serif" font-size="14" lengthAdjust="spacing" textLength="155.333" x="500.12" y="654.8232">MPU6050(int address)</text><rect fill="#F24D5C" height="6" style="stroke:#C82930;stroke-width:1;" width="6" x="488.12" y="664.7734"/><text fill="#000000" font-family="sans-serif" font-size="14" lengthAdjust="spacing" textLength="68.4688" x="500.12" y="671.1201">onEvent()</text><rect fill="#F24D5C" height="6" style="stroke:#C82930;stroke-width:1;" width="6" x="488.12" y="681.0703"/><text fill="#000000" font-family="sans-serif" font-size="14" lengthAdjust="spacing" textLength="93.249" x="500.12" y="687.417">void worker()</text></g><!--class ControllerCallbackInterface--><g class="entity" data-entity="ControllerCallbackInterface" data-source-line="50" data-uid="ent0007" id="entity_ControllerCallbackInterface"><rect fill="#F1F1F1" height="64.2969" rx="2.5" ry="2.5" style="stroke:#181818;stroke-width:0.5;" width="319.624" x="553.4" y="754.72"/><ellipse cx="613.3341" cy="770.72" fill="#A9DCDF" rx="11" ry="11" style="stroke:#181818;stroke-width:1;"/><path d="M613.4435,766.0637 L612.2872,771.1419 L614.6153,771.1419 L613.4435,766.0637 Z M611.9591,763.8294 L614.9435,763.8294 L618.3028,776.22 L615.8497,776.22 L615.0841,773.1575 L611.8028,773.1575 L611.0528,776.22 L608.6153,776.22 L611.9591,763.8294 Z " fill="#000000"/><text fill="#000000" font-family="sans-serif" font-size="14" font-style="italic" lengthAdjust="spacing" textLength="191.2559" x="633.8341" y="775.5667">ControllerCallbackInterface</text><line style="stroke:#181818;stroke-width:0.5;" x1="554.4" x2="872.024" y1="786.72" y2="786.72"/><line style="stroke:#181818;stroke-width:0.5;" x1="554.4" x2="872.024" y1="794.72" y2="794.72"/><text fill="#000000" font-family="sans-serif" font-size="14" font-style="italic" lengthAdjust="spacing" textLength="307.624" x="559.4" y="811.7151">hasEvent(ControllerEvent&amp; controllerEvent)</text></g><!--class ControllerEvent--><g class="entity" data-entity="ControllerEvent" data-source-line="55" data-uid="ent0009" id="entity_ControllerEvent"><rect fill="#F1F1F1" height="162.0781" rx="2.5" ry="2.5" style="stroke:#181818;stroke-width:0.5;" width="344.418" x="7" y="39.6"/><ellipse cx="120.3193" cy="55.6" fill="#ADD1B2" rx="11" ry="11" style="stroke:#181818;stroke-width:1;"/><path d="M123.2881,61.2406 Q122.71,61.5375 122.0693,61.6781 Q121.4287,61.8344 120.7256,61.8344 Q118.2256,61.8344 116.8975,60.1937 Q115.585,58.5375 115.585,55.4125 Q115.585,52.2875 116.8975,50.6312 Q118.2256,48.975 120.7256,48.975 Q121.4287,48.975 122.0693,49.1312 Q122.7256,49.2875 123.2881,49.5844 L123.2881,52.3031 Q122.6631,51.725 122.0693,51.4594 Q121.4756,51.1781 120.8506,51.1781 Q119.5068,51.1781 118.8193,52.2562 Q118.1318,53.3187 118.1318,55.4125 Q118.1318,57.5062 118.8193,58.5844 Q119.5068,59.6469 120.8506,59.6469 Q121.4756,59.6469 122.0693,59.3812 Q122.6631,59.1 123.2881,58.5219 L123.2881,61.2406 Z " fill="#000000"/><text fill="#000000" font-family="sans-serif" font-size="14" lengthAdjust="spacing" textLength="109.2793" x="140.8193" y="60.4467">ControllerEvent</text><line style="stroke:#181818;stroke-width:0.5;" x1="8" x2="350.418" y1="71.6" y2="71.6"/><rect fill="none" height="6" style="stroke:#C82930;stroke-width:1;" width="6" x="15" y="82.2484"/><text fill="#000000" font-family="sans-serif" font-size="14" lengthAdjust="spacing" textLength="60.4502" x="27" y="88.5951">double x</text><rect fill="none" height="6" style="stroke:#C82930;stroke-width:1;" width="6" x="15" y="98.5453"/><text fill="#000000" font-family="sans-serif" font-size="14" lengthAdjust="spacing" textLength="60.4502" x="27" y="104.892">double y</text><rect fill="none" height="6" style="stroke:#C82930;stroke-width:1;" width="6" x="15" y="114.8422"/><text fill="#000000" font-family="sans-serif" font-size="14" lengthAdjust="spacing" textLength="59.5137" x="27" y="121.1889">double z</text><line style="stroke:#181818;stroke-width:0.5;" x1="8" x2="350.418" y1="128.4906" y2="128.4906"/><ellipse cx="18" cy="142.1391" fill="#84BE84" rx="3" ry="3" style="stroke:#038048;stroke-width:1;"/><text fill="#000000" font-family="sans-serif" font-size="14" lengthAdjust="spacing" textLength="318.418" x="27" y="145.4857">ControllerEvent(double x, double y, double z)</text><ellipse cx="18" cy="158.4359" fill="#84BE84" rx="3" ry="3" style="stroke:#038048;stroke-width:1;"/><text fill="#000000" font-family="sans-serif" font-size="14" lengthAdjust="spacing" textLength="43.5039" x="27" y="161.7826">getX()</text><ellipse cx="18" cy="174.7328" fill="#84BE84" rx="3" ry="3" style="stroke:#038048;stroke-width:1;"/><text fill="#000000" font-family="sans-serif" font-size="14" lengthAdjust="spacing" textLength="42.4648" x="27" y="178.0795">getY()</text><ellipse cx="18" cy="191.0297" fill="#84BE84" rx="3" ry="3" style="stroke:#038048;stroke-width:1;"/><text fill="#000000" font-family="sans-serif" font-size="14" lengthAdjust="spacing" textLength="43.5039" x="27" y="194.3764">getZ()</text></g><!--class MPUSynth--><g class="entity" data-entity="MPUSynth" data-source-line="65" data-uid="ent0010" id="entity_MPUSynth"><rect fill="#F1F1F1" height="243.5625" rx="2.5" ry="2.5" style="stroke:#181818;stroke-width:0.5;" width="423.0859" x="501.67" y="879.02"/><ellipse cx="673.3751" cy="895.02" fill="#ADD1B2" rx="11" ry="11" style="stroke:#181818;stroke-width:1;"/><path d="M676.3438,900.6606 Q675.7657,900.9575 675.1251,901.0981 Q674.4845,901.2544 673.7813,901.2544 Q671.2813,901.2544 669.9532,899.6138 Q668.6407,897.9575 668.6407,894.8325 Q668.6407,891.7075 669.9532,890.0513 Q671.2813,888.395 673.7813,888.395 Q674.4845,888.395 675.1251,888.5513 Q675.7813,888.7075 676.3438,889.0044 L676.3438,891.7231 Q675.7188,891.145 675.1251,890.8794 Q674.5313,890.5981 673.9063,890.5981 Q672.5626,890.5981 671.8751,891.6763 Q671.1876,892.7388 671.1876,894.8325 Q671.1876,896.9263 671.8751,898.0044 Q672.5626,899.0669 673.9063,899.0669 Q674.5313,899.0669 675.1251,898.8013 Q675.7188,898.52 676.3438,897.9419 L676.3438,900.6606 Z " fill="#000000"/><text fill="#000000" font-family="sans-serif" font-size="14" lengthAdjust="spacing" textLength="71.1758" x="693.8751" y="899.8667">MPUSynth</text><line style="stroke:#181818;stroke-width:0.5;" x1="502.67" x2="923.7559" y1="911.02" y2="911.02"/><rect fill="none" height="6" style="stroke:#C82930;stroke-width:1;" width="6" x="509.67" y="921.6684"/><text fill="#000000" font-family="sans-serif" font-size="14" lengthAdjust="spacing" textLength="106.0117" x="521.67" y="928.0151">int sampleRate</text><rect fill="none" height="6" style="stroke:#C82930;stroke-width:1;" width="6" x="509.67" y="937.9653"/><text fill="#000000" font-family="sans-serif" font-size="14" lengthAdjust="spacing" textLength="87.7666" x="521.67" y="944.312">float volume</text><rect fill="none" height="6" style="stroke:#C82930;stroke-width:1;" width="6" x="509.67" y="954.2622"/><text fill="#000000" font-family="sans-serif" font-size="14" lengthAdjust="spacing" textLength="128.249" x="521.67" y="960.6089">float noteDuration</text><rect fill="none" height="6" style="stroke:#C82930;stroke-width:1;" width="6" x="509.67" y="970.5591"/><text fill="#000000" font-family="sans-serif" font-size="14" lengthAdjust="spacing" textLength="195.5898" x="521.67" y="976.9057">stk::Instrument* instrument</text><rect fill="none" height="6" style="stroke:#C82930;stroke-width:1;" width="6" x="509.67" y="986.8559"/><text fill="#000000" font-family="sans-serif" font-size="14" lengthAdjust="spacing" textLength="84.6221" x="521.67" y="993.2026">RtAudio dac</text><line style="stroke:#181818;stroke-width:0.5;" x1="502.67" x2="923.7559" y1="1000.5044" y2="1000.5044"/><ellipse cx="512.67" cy="1014.1528" fill="#84BE84" rx="3" ry="3" style="stroke:#038048;stroke-width:1;"/><text fill="#000000" font-family="sans-serif" font-size="14" lengthAdjust="spacing" textLength="82.0996" x="521.67" y="1017.4995">MPUSynth()</text><ellipse cx="512.67" cy="1030.4497" fill="#84BE84" rx="3" ry="3" style="stroke:#038048;stroke-width:1;"/><text fill="#000000" font-family="sans-serif" font-size="14" lengthAdjust="spacing" textLength="93.8301" x="521.67" y="1033.7964">~MPUSynth()</text><ellipse cx="512.67" cy="1046.7466" fill="#84BE84" rx="3" ry="3" style="stroke:#038048;stroke-width:1;"/><text fill="#000000" font-family="sans-serif" font-size="14" lengthAdjust="spacing" textLength="370.3643" x="521.67" y="1050.0932">void setInstrument(InstrumentType instrumentType)</text><ellipse cx="512.67" cy="1063.0434" fill="#84BE84" rx="3" ry="3" style="stroke:#038048;stroke-width:1;"/><text fill="#000000" font-family="sans-serif" font-size="14" lengthAdjust="spacing" textLength="397.0859" x="521.67" y="1066.3901">void setScale(ScaleType scaleType, std::string rootNote)</text><ellipse cx="512.67" cy="1079.3403" fill="#84BE84" rx="3" ry="3" style="stroke:#038048;stroke-width:1;"/><text fill="#000000" font-family="sans-serif" font-size="14" lengthAdjust="spacing" textLength="207.3203" x="521.67" y="1082.687">void setVolume(float volume)</text><ellipse cx="512.67" cy="1095.6372" fill="#84BE84" rx="3" ry="3" style="stroke:#038048;stroke-width:1;"/><text fill="#000000" font-family="sans-serif" font-size="14" lengthAdjust="spacing" textLength="282.666" x="521.67" y="1098.9839">void setNoteDuration(float milliseconds)</text><ellipse cx="512.67" cy="1111.9341" fill="#84BE84" rx="3" ry="3" style="stroke:#038048;stroke-width:1;"/><text fill="#000000" font-family="sans-serif" font-size="14" lengthAdjust="spacing" textLength="243.1133" x="521.67" y="1115.2807">void hasEvent(ControllerEvent&amp; e)</text></g><!--class ScaleType--><g class="entity" data-entity="ScaleType" data-source-line="80" data-uid="ent0012" id="entity_ScaleType"><rect fill="#F1F1F1" height="129.4844" rx="2.5" ry="2.5" style="stroke:#181818;stroke-width:0.5;" width="104.0029" x="386.21" y="55.89"/><ellipse cx="401.21" cy="71.89" fill="#ADD1B2" rx="11" ry="11" style="stroke:#181818;stroke-width:1;"/><path d="M405.3194,77.89 L397.6006,77.89 L397.6006,65.4994 L405.3194,65.4994 L405.3194,67.6556 L400.0538,67.6556 L400.0538,70.3275 L404.8194,70.3275 L404.8194,72.4837 L400.0538,72.4837 L400.0538,75.7337 L405.3194,75.7337 L405.3194,77.89 Z " fill="#000000"/><text fill="#000000" font-family="sans-serif" font-size="14" lengthAdjust="spacing" textLength="72.0029" x="415.21" y="76.7367">ScaleType</text><line style="stroke:#181818;stroke-width:0.5;" x1="387.21" x2="489.2129" y1="87.89" y2="87.89"/><text fill="#000000" font-family="sans-serif" font-size="14" lengthAdjust="spacing" textLength="46.5322" x="392.21" y="104.8851">MAJOR</text><text fill="#000000" font-family="sans-serif" font-size="14" lengthAdjust="spacing" textLength="47.4277" x="392.21" y="121.182">MINOR</text><text fill="#000000" font-family="sans-serif" font-size="14" lengthAdjust="spacing" textLength="89.8379" x="392.21" y="137.4789">PENTATONIC</text><text fill="#000000" font-family="sans-serif" font-size="14" lengthAdjust="spacing" textLength="45.3838" x="392.21" y="153.7757">BLUES</text><text fill="#000000" font-family="sans-serif" font-size="14" lengthAdjust="spacing" textLength="85.1621" x="392.21" y="170.0726">CHROMATIC</text><line style="stroke:#181818;stroke-width:0.5;" x1="387.21" x2="489.2129" y1="177.3744" y2="177.3744"/></g><!--class InstrumentType--><g class="entity" data-entity="InstrumentType" data-source-line="88" data-uid="ent0013" id="entity_InstrumentType"><rect fill="#F1F1F1" height="129.4844" rx="2.5" ry="2.5" style="stroke:#181818;stroke-width:0.5;" width="143.3643" x="107.53" y="294.27"/><ellipse cx="122.53" cy="310.27" fill="#ADD1B2" rx="11" ry="11" style="stroke:#181818;stroke-width:1;"/><path d="M126.6394,316.27 L118.9206,316.27 L118.9206,303.8794 L126.6394,303.8794 L126.6394,306.0356 L121.3738,306.0356 L121.3738,308.7075 L126.1394,308.7075 L126.1394,310.8638 L121.3738,310.8638 L121.3738,314.1138 L126.6394,314.1138 L126.6394,316.27 Z " fill="#000000"/><text fill="#000000" font-family="sans-serif" font-size="14" lengthAdjust="spacing" textLength="111.3643" x="136.53" y="315.1167">InstrumentType</text><line style="stroke:#181818;stroke-width:0.5;" x1="108.53" x2="249.8943" y1="326.27" y2="326.27"/><text fill="#000000" font-family="sans-serif" font-size="14" lengthAdjust="spacing" textLength="43.6406" x="113.53" y="343.2651">PIANO</text><text fill="#000000" font-family="sans-serif" font-size="14" lengthAdjust="spacing" textLength="59.4521" x="113.53" y="359.562">RHODEY</text><text fill="#000000" font-family="sans-serif" font-size="14" lengthAdjust="spacing" textLength="59.0146" x="113.53" y="375.8589">WURLEY</text><text fill="#000000" font-family="sans-serif" font-size="14" lengthAdjust="spacing" textLength="44.9668" x="113.53" y="392.1557">MOOG</text><text fill="#000000" font-family="sans-serif" font-size="14" lengthAdjust="spacing" textLength="68.8789" x="113.53" y="408.4526">CLARINET</text><line style="stroke:#181818;stroke-width:0.5;" x1="108.53" x2="249.8943" y1="415.7544" y2="415.7544"/></g><!--reverse link Button to ButtonCallbackInterface--><g class="link" data-entity-1="Button" data-entity-2="ButtonCallbackInterface" data-source-line="30" data-uid="lnk4" id="link_Button_ButtonCallbackInterface"><path codeLine="30" d="M713.21,246.63 C713.21,280.34 713.21,302.61 713.21,326.45" fill="none" id="Button-backto-ButtonCallbackInterface" style="stroke:#181818;stroke-width:1;"/><polygon fill="#181818" points="713.21,234.63,709.21,240.63,713.21,246.63,717.21,240.63,713.21,234.63" style="stroke:#181818;stroke-width:1;"/></g><!--reverse link ButtonCallbackInterface to MPU6050--><g class="link" data-entity-1="ButtonCallbackInterface" data-entity-2="MPU6050" data-source-line="36" data-uid="lnk6" id="link_ButtonCallbackInterface_MPU6050"><path d="M713.21,409.27 C713.21,433.25 713.21,449.84 713.21,483.36" fill="none" id="ButtonCallbackInterface-backto-MPU6050" style="stroke:#181818;stroke-width:1;stroke-dasharray:7.0,7.0;"/><polygon fill="none" points="713.21,391.27,707.21,409.27,719.21,409.27,713.21,391.27" style="stroke:#181818;stroke-width:1;"/></g><!--reverse link MPU6050 to ControllerCallbackInterface--><g class="link" data-entity-1="MPU6050" data-entity-2="ControllerCallbackInterface" data-source-line="53" data-uid="lnk8" id="link_MPU6050_ControllerCallbackInterface"><path codeLine="53" d="M713.21,707.21 C713.21,728.78 713.21,737.89 713.21,754.3" fill="none" id="MPU6050-backto-ControllerCallbackInterface" style="stroke:#181818;stroke-width:1;"/><polygon fill="#181818" points="713.21,695.21,709.21,701.21,713.21,707.21,717.21,701.21,713.21,695.21" style="stroke:#181818;stroke-width:1;"/></g><!--reverse link ControllerCallbackInterface to MPUSynth--><g class="link" data-entity-1="ControllerCallbackInterface" data-entity-2="MPUSynth" data-source-line="66" data-uid="lnk11" id="link_ControllerCallbackInterface_MPUSynth"><path d="M713.21,837.14 C713.21,853.49 713.21,856.67 713.21,878.74" fill="none" id="ControllerCallbackInterface-backto-MPUSynth" style="stroke:#181818;stroke-width:1;stroke-dasharray:7.0,7.0;"/><polygon fill="none" points="713.21,819.14,707.21,837.14,719.21,837.14,713.21,819.14" style="stroke:#181818;stroke-width:1;"/></g><!--SRC=[lLPjRnev4Fw-lsAaIWSX2UIDb72daoX5BQS4425trrEboBjhM5-ClRAzIMcL_lORsxli0YBvTFa2u_6yppFZhNt8Z942c0PDbXI8Xa-JuNZ2a2N091H2okKJp1cdkXdKl7YtgmrHfdxmAoJ6fBhRQYsOIRAm6SbbAwHAnAbKgiLPk4YPZE_f8nNcFgPBsGgv35kdyykhzkK5wSnFJ-BEUUVqxEmykemkJY_QxNRdVOUUTCxFuelBbbLtoiqeJTzTNvKHABfWsb3L9vo797fuqs2ITzSNLzLgoFJjY_7-h8pWfoVUkWZdxI3YH6l8OVGZ03Y4HybYy0XXma3An4WUWIMZXAKZnDb1ARVJHs-gE0u5tir9H1iGiOEgULjoU_wwpXrFnr8CR71rdoLdWlfKVm7tvsISWIUf7gZoIbxO1WSD-sj7eEHR8z30B79shI9EH0mLAQ8ef9Wto3aKfRQ6GYavpjWq4uA9XULe4tUx9b6KnE3_rjn76XcfVjjNXzyXodawU0uA2Ep8kP5cIyQ90YFTLBlAx0fgexB8u73VKlgswC4HoljLNK09qJdFRo0IoaVgDb3pvMmJ-IIi0G8Ub0bLz0Z2p5adaSbGQuMtFc5umXJHHGvTf-8Tm4fcM6IqnRM4cCvjQvdnfZN51XD32mKIeZaq3jL1s8tFJWR0ZqBwUPtbVgG-1pKO-XBGRsIPSlGfOwo4L6jm7U4r9iTqcPQFDoxIi-gs-JwmPf2dspW-tXShOkfcSdTvqZw1PQOHouzKAOQEhQcYNqjg4kl-Nol1sGErtN9N4yMifRmUoFsV8PNNna7hFlNE_OBi1BL-fXJQvIkxVn0FsCMvaikzRM82Tn6E9CvliLhtLQdMJuXO-Ahajeb04pXihwW2cpk8EJfLCkHqYKZo1IjApsnIIupzDKpb2_5rF5M4y-UxojhPmxShOPA-57Ess5d2kslOShx-p8DVSugptVqaZXNLsb-jztH-t5x9MxiGmp1ASbw6Lzs7HUWqxgytepDHSUjMvGjcxFR8U8oVEpiBekZ8KyAY91yl7TJ8UWzZxKMCHdUMmKl-zY-4KclW-nTjCkncA6AoO_o2bo3O3iHFBpe_tEBLOvaX4E7R4UJKQarznvOSBgZvkvuJNmhY7qiS5webkIh9xxRqQsmxL5N1_LgD3WkbuhNVF7iKKZCKjcdMPBqaPwlKZtHvt52wnGxIkljrehgWZi2X3nNnkGObfHb9iwdxf-Hej3xdaXYS1NlOkBSA7pDyAHX-cdWfV8mvqnJR6UjITd_VdK47OkrMt1IV7Skf-YpFekBGVqiyTBjbBHgLGjZhgUbbCSFdZKIsGSXbPWLbBJm-Rtf_ZAUU6evoQZ8OpNgpyMZOTySFrtU3MqVrFq_7DxqPyak3MytmLYV3tcZigEddySV15qV-TJUzpicRyVYJjtZTcmv7Wrdm_1y0]--></g></svg>