<svg xmlns="http://www.w3.org/2000/svg" xmlns:xlink="http://www.w3.org/1999/xlink" contentStyleType="text/css" data-diagram-type="SEQUENCE" height="1845px" preserveAspectRatio="none" style="width:2364px;height:1845px;background:#FFFFFF;" version="1.1" viewBox="0 0 2364 1845" width="2364px" zoomAndPan="magnify"><defs/><g><g><title>Musician</title><rect fill="#FFFFFF" height="942.4531" style="stroke:#181818;stroke-width:1;" width="10" x="33.5874" y="667.875"/></g><g><title>main</title><rect fill="#FFFFFF" height="1645.0313" style="stroke:#181818;stroke-width:1;" width="10" x="97.6646" y="91.2969"/></g><g><title>left_input: Button</title><rect fill="#FFFFFF" height="58.2969" style="stroke:#181818;stroke-width:1;" width="10" x="252.1206" y="122.4297"/></g><g><title>left_input: Button</title><rect fill="#FFFFFF" height="56.1328" style="stroke:#181818;stroke-width:1;" width="10" x="252.1206" y="416.8828"/></g><g><title>left_input: Button</title><rect fill="#FFFFFF" height="106.3984" style="stroke:#181818;stroke-width:1;" width="10" x="252.1206" y="712.1406"/></g><g><title>right_input: Button</title><rect fill="#FFFFFF" height="58.2969" style="stroke:#181818;stroke-width:1;" width="10" x="553.5474" y="219.8594"/></g><g><title>right_input: Button</title><rect fill="#FFFFFF" height="58.2969" style="stroke:#181818;stroke-width:1;" width="10" x="553.5474" y="553.4453"/></g><g><title>right_input: Button</title><rect fill="#FFFFFF" height="71.2656" style="stroke:#181818;stroke-width:1;" width="10" x="553.5474" y="1172.8672"/></g><g><title>leftMPU: MPU6050</title><rect fill="#FFFFFF" height="58.2969" style="stroke:#181818;stroke-width:1;" width="10" x="854.9741" y="358.5859"/></g><g><title>leftMPU: MPU6050</title><rect fill="#FFFFFF" height="353.1953" style="stroke:#181818;stroke-width:1;" width="10" x="854.9741" y="783.4063"/></g><g><title>mode_controller:ModeController</title><rect fill="#FFFFFF" height="85.2656" style="stroke:#181818;stroke-width:1;" width="10" x="1163.8677" y="1029.3359"/></g><g><title>rightMPU: MPU6050</title><rect fill="#FFFFFF" height="56.1328" style="stroke:#181818;stroke-width:1;" width="10" x="1477.7612" y="611.7422"/></g><g><title>rightMPU: MPU6050</title><rect fill="#FFFFFF" height="366.1953" style="stroke:#181818;stroke-width:1;" width="10" x="1477.7612" y="1244.1328"/></g><g><title>synth_controller: SynthController</title><rect fill="#FFFFFF" height="14" style="stroke:#181818;stroke-width:1;" width="10" x="1786.6548" y="1100.6016"/></g><g><title>synth_controller: SynthController</title><rect fill="#FFFFFF" height="98.2656" style="stroke:#181818;stroke-width:1;" width="10" x="1786.6548" y="1490.0625"/></g><rect fill="none" height="289.0625" style="stroke:#000000;stroke-width:1.5;" width="1408.8174" x="768.3472" y="840.5391"/><rect fill="none" height="173.6641" style="stroke:#000000;stroke-width:1.5;" width="1146.1357" x="778.3472" y="948.9375"/><rect fill="none" height="302.0625" style="stroke:#000000;stroke-width:1.5;" width="972.0825" x="1386.1475" y="1301.2656"/><rect fill="none" height="186.6641" style="stroke:#000000;stroke-width:1.5;" width="709.4009" x="1396.1475" y="1409.6641"/><g><title>Musician</title><rect fill="#000000" fill-opacity="0.00000" height="1683.0313" width="8" x="34.5874" y="81.2969"/><line style="stroke:#181818;stroke-width:0.5;stroke-dasharray:5.0,5.0;" x1="38" x2="38" y1="81.2969" y2="1764.3281"/></g><g><title>main</title><rect fill="#000000" fill-opacity="0.00000" height="1683.0313" width="8" x="98.6646" y="81.2969"/><line style="stroke:#181818;stroke-width:0.5;stroke-dasharray:5.0,5.0;" x1="102.1748" x2="102.1748" y1="81.2969" y2="1764.3281"/></g><g><title>left_input: Button</title><rect fill="#000000" fill-opacity="0.00000" height="1642.3828" width="8" x="253.1206" y="121.9453"/><line style="stroke:#181818;stroke-width:0.5;stroke-dasharray:5.0,5.0;" x1="256.1235" x2="256.1235" y1="121.9453" y2="1764.3281"/></g><g><title>right_input: Button</title><rect fill="#000000" fill-opacity="0.00000" height="1544.9531" width="8" x="554.5474" y="219.375"/><line style="stroke:#181818;stroke-width:0.5;stroke-dasharray:5.0,5.0;" x1="557.5635" x2="557.5635" y1="219.375" y2="1764.3281"/></g><g><title>leftMPU: MPU6050</title><rect fill="#000000" fill-opacity="0.00000" height="1447.5234" width="8" x="855.9741" y="316.8047"/><line style="stroke:#181818;stroke-width:0.5;stroke-dasharray:5.0,5.0;" x1="859.3472" x2="859.3472" y1="316.8047" y2="1764.3281"/></g><g><title>mode_controller:ModeController</title><rect fill="#000000" fill-opacity="0.00000" height="1406.2266" width="8" x="1164.8677" y="358.1016"/><line style="stroke:#181818;stroke-width:0.5;stroke-dasharray:5.0,5.0;" x1="1167.9517" x2="1167.9517" y1="358.1016" y2="1764.3281"/></g><g><title>rightMPU: MPU6050</title><rect fill="#000000" fill-opacity="0.00000" height="1252.6641" width="8" x="1478.7612" y="511.6641"/><line style="stroke:#181818;stroke-width:0.5;stroke-dasharray:5.0,5.0;" x1="1482.1475" x2="1482.1475" y1="511.6641" y2="1764.3281"/></g><g><title>synth_controller: SynthController</title><rect fill="#000000" fill-opacity="0.00000" height="1211.3672" width="8" x="1787.6548" y="552.9609"/><line style="stroke:#181818;stroke-width:0.5;stroke-dasharray:5.0,5.0;" x1="1790.8267" x2="1790.8267" y1="552.9609" y2="1764.3281"/></g><g class="participant participant-head" data-participant="musician"><text fill="#000000" font-family="sans-serif" font-size="14" lengthAdjust="spacing" textLength="61.1748" x="5" y="77.9951">Musician</text><ellipse cx="38.5874" cy="13.5" fill="#E2E2F0" rx="8" ry="8" style="stroke:#181818;stroke-width:0.5;"/><path d="M38.5874,21.5 L38.5874,48.5 M25.5874,29.5 L51.5874,29.5 M38.5874,48.5 L25.5874,63.5 M38.5874,48.5 L51.5874,63.5" fill="none" style="stroke:#181818;stroke-width:0.5;"/></g><g class="participant participant-tail" data-participant="musician"><text fill="#000000" font-family="sans-serif" font-size="14" lengthAdjust="spacing" textLength="61.1748" x="5" y="1776.3232">Musician</text><ellipse cx="38.5874" cy="1788.125" fill="#E2E2F0" rx="8" ry="8" style="stroke:#181818;stroke-width:0.5;"/><path d="M38.5874,1796.125 L38.5874,1823.125 M25.5874,1804.125 L51.5874,1804.125 M38.5874,1823.125 L25.5874,1838.125 M38.5874,1823.125 L51.5874,1838.125" fill="none" style="stroke:#181818;stroke-width:0.5;"/></g><g class="participant participant-head" data-participant="main"><text fill="#000000" font-family="sans-serif" font-size="14" lengthAdjust="spacing" textLength="34.9795" x="82.1748" y="77.9951">main</text><ellipse cx="102.6646" cy="49" fill="#E2E2F0" rx="12" ry="12" style="stroke:#181818;stroke-width:0.5;"/><polygon fill="#181818" points="98.6646,37,104.6646,32,102.6646,37,104.6646,42,98.6646,37" style="stroke:#181818;stroke-width:1;"/></g><g class="participant participant-tail" data-participant="main"><text fill="#000000" font-family="sans-serif" font-size="14" lengthAdjust="spacing" textLength="34.9795" x="82.1748" y="1776.3232">main</text><ellipse cx="102.6646" cy="1795.625" fill="#E2E2F0" rx="12" ry="12" style="stroke:#181818;stroke-width:0.5;"/><polygon fill="#181818" points="98.6646,1783.625,104.6646,1778.625,102.6646,1783.625,104.6646,1788.625,98.6646,1783.625" style="stroke:#181818;stroke-width:1;"/></g><g class="participant participant-tail" data-participant="left_input"><rect fill="#E2E2F0" height="30.2969" rx="2.5" ry="2.5" style="stroke:#181818;stroke-width:0.5;" width="135.9941" x="189.1235" y="1763.3281"/><text fill="#000000" font-family="sans-serif" font-size="14" lengthAdjust="spacing" textLength="121.9941" x="196.1235" y="1783.3232">left_input: Button</text></g><g class="participant participant-tail" data-participant="right_input"><rect fill="#E2E2F0" height="30.2969" rx="2.5" ry="2.5" style="stroke:#181818;stroke-width:0.5;" width="145.9678" x="485.5635" y="1763.3281"/><text fill="#000000" font-family="sans-serif" font-size="14" lengthAdjust="spacing" textLength="131.9678" x="492.5635" y="1783.3232">right_input: Button</text></g><g class="participant participant-tail" data-participant="left_mpu"><rect fill="#E2E2F0" height="30.2969" rx="2.5" ry="2.5" style="stroke:#181818;stroke-width:0.5;" width="143.2539" x="788.3472" y="1763.3281"/><text fill="#000000" font-family="sans-serif" font-size="14" lengthAdjust="spacing" textLength="129.2539" x="795.3472" y="1783.3232">leftMPU: MPU6050</text></g><g class="participant participant-tail" data-participant="mode_controller"><rect fill="#E2E2F0" height="30.2969" rx="2.5" ry="2.5" style="stroke:#181818;stroke-width:0.5;" width="239.832" x="1048.9517" y="1763.3281"/><text fill="#000000" font-family="sans-serif" font-size="14" lengthAdjust="spacing" textLength="225.832" x="1055.9517" y="1783.3232">mode_controller:ModeController</text></g><g class="participant participant-tail" data-participant="right_mpu"><rect fill="#E2E2F0" height="30.2969" rx="2.5" ry="2.5" style="stroke:#181818;stroke-width:0.5;" width="153.2275" x="1406.1475" y="1763.3281"/><text fill="#000000" font-family="sans-serif" font-size="14" lengthAdjust="spacing" textLength="139.2275" x="1413.1475" y="1783.3232">rightMPU: MPU6050</text></g><g class="participant participant-tail" data-participant="synth_controller"><rect fill="#E2E2F0" height="30.2969" rx="2.5" ry="2.5" style="stroke:#181818;stroke-width:0.5;" width="245.6563" x="1668.8267" y="1763.3281"/><text fill="#000000" font-family="sans-serif" font-size="14" lengthAdjust="spacing" textLength="231.6563" x="1675.8267" y="1783.3232">synth_controller: SynthController</text></g><g><title>Musician</title><rect fill="#FFFFFF" height="942.4531" style="stroke:#181818;stroke-width:1;" width="10" x="33.5874" y="667.875"/></g><g><title>main</title><rect fill="#FFFFFF" height="1645.0313" style="stroke:#181818;stroke-width:1;" width="10" x="97.6646" y="91.2969"/></g><g><title>left_input: Button</title><rect fill="#FFFFFF" height="58.2969" style="stroke:#181818;stroke-width:1;" width="10" x="252.1206" y="122.4297"/></g><g><title>left_input: Button</title><rect fill="#FFFFFF" height="56.1328" style="stroke:#181818;stroke-width:1;" width="10" x="252.1206" y="416.8828"/></g><g><title>left_input: Button</title><rect fill="#FFFFFF" height="106.3984" style="stroke:#181818;stroke-width:1;" width="10" x="252.1206" y="712.1406"/></g><g><title>right_input: Button</title><rect fill="#FFFFFF" height="58.2969" style="stroke:#181818;stroke-width:1;" width="10" x="553.5474" y="219.8594"/></g><g><title>right_input: Button</title><rect fill="#FFFFFF" height="58.2969" style="stroke:#181818;stroke-width:1;" width="10" x="553.5474" y="553.4453"/></g><g><title>right_input: Button</title><rect fill="#FFFFFF" height="71.2656" style="stroke:#181818;stroke-width:1;" width="10" x="553.5474" y="1172.8672"/></g><g><title>leftMPU: MPU6050</title><rect fill="#FFFFFF" height="58.2969" style="stroke:#181818;stroke-width:1;" width="10" x="854.9741" y="358.5859"/></g><g><title>leftMPU: MPU6050</title><rect fill="#FFFFFF" height="353.1953" style="stroke:#181818;stroke-width:1;" width="10" x="854.9741" y="783.4063"/></g><g><title>mode_controller:ModeController</title><rect fill="#FFFFFF" height="85.2656" style="stroke:#181818;stroke-width:1;" width="10" x="1163.8677" y="1029.3359"/></g><g><title>rightMPU: MPU6050</title><rect fill="#FFFFFF" height="56.1328" style="stroke:#181818;stroke-width:1;" width="10" x="1477.7612" y="611.7422"/></g><g><title>rightMPU: MPU6050</title><rect fill="#FFFFFF" height="366.1953" style="stroke:#181818;stroke-width:1;" width="10" x="1477.7612" y="1244.1328"/></g><g><title>synth_controller: SynthController</title><rect fill="#FFFFFF" height="14" style="stroke:#181818;stroke-width:1;" width="10" x="1786.6548" y="1100.6016"/></g><g><title>synth_controller: SynthController</title><rect fill="#FFFFFF" height="98.2656" style="stroke:#181818;stroke-width:1;" width="10" x="1786.6548" y="1490.0625"/></g><g class="message" data-participant-1="main" data-participant-2="left_input"><polygon fill="#181818" points="177.1235,108.4297,187.1235,112.4297,177.1235,116.4297,181.1235,112.4297" style="stroke:#181818;stroke-width:1;"/><line style="stroke:#181818;stroke-width:1;stroke-dasharray:2.0,2.0;" x1="107.6646" x2="183.1235" y1="112.4297" y2="112.4297"/><text fill="#000000" font-family="sans-serif" font-size="13" lengthAdjust="spacing" textLength="57.459" x="114.6646" y="107.3638">«create»</text></g><rect fill="#E2E2F0" height="30.2969" rx="2.5" ry="2.5" style="stroke:#181818;stroke-width:0.5;" width="135.9941" x="189.1235" y="91.2969"/><text fill="#000000" font-family="sans-serif" font-size="14" lengthAdjust="spacing" textLength="121.9941" x="196.1235" y="111.292">left_input: Button</text><g class="message" data-participant-1="left_input" data-participant-2="left_input"><line style="stroke:#181818;stroke-width:1;" x1="262.1206" x2="304.1206" y1="153.7266" y2="153.7266"/><line style="stroke:#181818;stroke-width:1;" x1="304.1206" x2="304.1206" y1="153.7266" y2="166.7266"/><line style="stroke:#181818;stroke-width:1;" x1="263.1206" x2="304.1206" y1="166.7266" y2="166.7266"/><polygon fill="#181818" points="273.1206,162.7266,263.1206,166.7266,273.1206,170.7266,269.1206,166.7266" style="stroke:#181818;stroke-width:1;"/><text fill="#000000" font-family="sans-serif" font-size="13" lengthAdjust="spacing" textLength="153.7593" x="269.1206" y="148.6606">gpiod_line_event_wait()</text></g><g class="message" data-participant-1="left_input" data-participant-2="main"><polygon fill="#181818" points="118.6646,176.7266,108.6646,180.7266,118.6646,184.7266,114.6646,180.7266" style="stroke:#181818;stroke-width:1;"/><line style="stroke:#181818;stroke-width:1;stroke-dasharray:2.0,2.0;" x1="112.6646" x2="256.1206" y1="180.7266" y2="180.7266"/></g><g class="message" data-participant-1="main" data-participant-2="right_input"><polygon fill="#181818" points="473.5635,205.8594,483.5635,209.8594,473.5635,213.8594,477.5635,209.8594" style="stroke:#181818;stroke-width:1;"/><line style="stroke:#181818;stroke-width:1;stroke-dasharray:2.0,2.0;" x1="107.6646" x2="479.5635" y1="209.8594" y2="209.8594"/><text fill="#000000" font-family="sans-serif" font-size="13" lengthAdjust="spacing" textLength="57.459" x="114.6646" y="204.7935">«create»</text></g><rect fill="#E2E2F0" height="30.2969" rx="2.5" ry="2.5" style="stroke:#181818;stroke-width:0.5;" width="145.9678" x="485.5635" y="188.7266"/><text fill="#000000" font-family="sans-serif" font-size="14" lengthAdjust="spacing" textLength="131.9678" x="492.5635" y="208.7217">right_input: Button</text><g class="message" data-participant-1="right_input" data-participant-2="right_input"><line style="stroke:#181818;stroke-width:1;" x1="563.5474" x2="605.5474" y1="251.1563" y2="251.1563"/><line style="stroke:#181818;stroke-width:1;" x1="605.5474" x2="605.5474" y1="251.1563" y2="264.1563"/><line style="stroke:#181818;stroke-width:1;" x1="564.5474" x2="605.5474" y1="264.1563" y2="264.1563"/><polygon fill="#181818" points="574.5474,260.1563,564.5474,264.1563,574.5474,268.1563,570.5474,264.1563" style="stroke:#181818;stroke-width:1;"/><text fill="#000000" font-family="sans-serif" font-size="13" lengthAdjust="spacing" textLength="153.7593" x="570.5474" y="246.0903">gpiod_line_event_wait()</text></g><g class="message" data-participant-1="right_input" data-participant-2="main"><polygon fill="#181818" points="118.6646,274.1563,108.6646,278.1563,118.6646,282.1563,114.6646,278.1563" style="stroke:#181818;stroke-width:1;"/><line style="stroke:#181818;stroke-width:1;stroke-dasharray:2.0,2.0;" x1="112.6646" x2="557.5474" y1="278.1563" y2="278.1563"/></g><g class="message" data-participant-1="main" data-participant-2="left_mpu"><polygon fill="#181818" points="776.3472,303.2891,786.3472,307.2891,776.3472,311.2891,780.3472,307.2891" style="stroke:#181818;stroke-width:1;"/><line style="stroke:#181818;stroke-width:1;stroke-dasharray:2.0,2.0;" x1="107.6646" x2="782.3472" y1="307.2891" y2="307.2891"/><text fill="#000000" font-family="sans-serif" font-size="13" lengthAdjust="spacing" textLength="57.459" x="114.6646" y="302.2231">«create»</text></g><rect fill="#E2E2F0" height="30.2969" rx="2.5" ry="2.5" style="stroke:#181818;stroke-width:0.5;" width="143.2539" x="788.3472" y="286.1563"/><text fill="#000000" font-family="sans-serif" font-size="14" lengthAdjust="spacing" textLength="129.2539" x="795.3472" y="306.1514">leftMPU: MPU6050</text><g class="message" data-participant-1="main" data-participant-2="mode_controller"><polygon fill="#181818" points="1036.9517,344.5859,1046.9517,348.5859,1036.9517,352.5859,1040.9517,348.5859" style="stroke:#181818;stroke-width:1;"/><line style="stroke:#181818;stroke-width:1;stroke-dasharray:2.0,2.0;" x1="107.6646" x2="1042.9517" y1="348.5859" y2="348.5859"/><text fill="#000000" font-family="sans-serif" font-size="13" lengthAdjust="spacing" textLength="57.459" x="114.6646" y="343.52">«create»</text></g><rect fill="#E2E2F0" height="30.2969" rx="2.5" ry="2.5" style="stroke:#181818;stroke-width:0.5;" width="239.832" x="1048.9517" y="327.4531"/><text fill="#000000" font-family="sans-serif" font-size="14" lengthAdjust="spacing" textLength="225.832" x="1055.9517" y="347.4482">mode_controller:ModeController</text><g class="message" data-participant-1="left_mpu" data-participant-2="left_mpu"><line style="stroke:#181818;stroke-width:1;" x1="864.9741" x2="906.9741" y1="389.8828" y2="389.8828"/><line style="stroke:#181818;stroke-width:1;" x1="906.9741" x2="906.9741" y1="389.8828" y2="402.8828"/><line style="stroke:#181818;stroke-width:1;" x1="865.9741" x2="906.9741" y1="402.8828" y2="402.8828"/><polygon fill="#181818" points="875.9741,398.8828,865.9741,402.8828,875.9741,406.8828,871.9741,402.8828" style="stroke:#181818;stroke-width:1;"/><text fill="#000000" font-family="sans-serif" font-size="13" lengthAdjust="spacing" textLength="221.3936" x="871.9741" y="384.8169">registerCallback(mode_controller)</text></g><g class="message" data-participant-1="left_mpu" data-participant-2="main"><polygon fill="#181818" points="118.6646,412.8828,108.6646,416.8828,118.6646,420.8828,114.6646,416.8828" style="stroke:#181818;stroke-width:1;"/><line style="stroke:#181818;stroke-width:1;" x1="112.6646" x2="858.9741" y1="416.8828" y2="416.8828"/></g><g class="message" data-participant-1="left_input" data-participant-2="left_input"><line style="stroke:#181818;stroke-width:1;" x1="262.1206" x2="304.1206" y1="446.0156" y2="446.0156"/><line style="stroke:#181818;stroke-width:1;" x1="304.1206" x2="304.1206" y1="446.0156" y2="459.0156"/><line style="stroke:#181818;stroke-width:1;" x1="263.1206" x2="304.1206" y1="459.0156" y2="459.0156"/><polygon fill="#181818" points="273.1206,455.0156,263.1206,459.0156,273.1206,463.0156,269.1206,459.0156" style="stroke:#181818;stroke-width:1;"/><text fill="#000000" font-family="sans-serif" font-size="13" lengthAdjust="spacing" textLength="165.5786" x="269.1206" y="440.9497">registerCallback(leftMPU)</text></g><g class="message" data-participant-1="left_input" data-participant-2="main"><polygon fill="#181818" points="118.6646,469.0156,108.6646,473.0156,118.6646,477.0156,114.6646,473.0156" style="stroke:#181818;stroke-width:1;"/><line style="stroke:#181818;stroke-width:1;" x1="112.6646" x2="256.1206" y1="473.0156" y2="473.0156"/></g><g class="message" data-participant-1="main" data-participant-2="right_mpu"><polygon fill="#181818" points="1394.1475,498.1484,1404.1475,502.1484,1394.1475,506.1484,1398.1475,502.1484" style="stroke:#181818;stroke-width:1;"/><line style="stroke:#181818;stroke-width:1;stroke-dasharray:2.0,2.0;" x1="107.6646" x2="1400.1475" y1="502.1484" y2="502.1484"/><text fill="#000000" font-family="sans-serif" font-size="13" lengthAdjust="spacing" textLength="57.459" x="114.6646" y="497.0825">«create»</text></g><rect fill="#E2E2F0" height="30.2969" rx="2.5" ry="2.5" style="stroke:#181818;stroke-width:0.5;" width="153.2275" x="1406.1475" y="481.0156"/><text fill="#000000" font-family="sans-serif" font-size="14" lengthAdjust="spacing" textLength="139.2275" x="1413.1475" y="501.0107">rightMPU: MPU6050</text><g class="message" data-participant-1="main" data-participant-2="synth_controller"><polygon fill="#181818" points="1656.8267,539.4453,1666.8267,543.4453,1656.8267,547.4453,1660.8267,543.4453" style="stroke:#181818;stroke-width:1;"/><line style="stroke:#181818;stroke-width:1;stroke-dasharray:2.0,2.0;" x1="107.6646" x2="1662.8267" y1="543.4453" y2="543.4453"/><text fill="#000000" font-family="sans-serif" font-size="13" lengthAdjust="spacing" textLength="57.459" x="114.6646" y="538.3794">«create»</text></g><rect fill="#E2E2F0" height="30.2969" rx="2.5" ry="2.5" style="stroke:#181818;stroke-width:0.5;" width="245.6563" x="1668.8267" y="522.3125"/><text fill="#000000" font-family="sans-serif" font-size="14" lengthAdjust="spacing" textLength="231.6563" x="1675.8267" y="542.3076">synth_controller: SynthController</text><g class="message" data-participant-1="right_input" data-participant-2="right_input"><line style="stroke:#181818;stroke-width:1;" x1="563.5474" x2="605.5474" y1="584.7422" y2="584.7422"/><line style="stroke:#181818;stroke-width:1;" x1="605.5474" x2="605.5474" y1="584.7422" y2="597.7422"/><line style="stroke:#181818;stroke-width:1;" x1="564.5474" x2="605.5474" y1="597.7422" y2="597.7422"/><polygon fill="#181818" points="574.5474,593.7422,564.5474,597.7422,574.5474,601.7422,570.5474,597.7422" style="stroke:#181818;stroke-width:1;"/><text fill="#000000" font-family="sans-serif" font-size="13" lengthAdjust="spacing" textLength="174.8398" x="570.5474" y="579.6763">registerCallback(rightMPU)</text></g><g class="message" data-participant-1="right_input" data-participant-2="main"><polygon fill="#181818" points="118.6646,607.7422,108.6646,611.7422,118.6646,615.7422,114.6646,611.7422" style="stroke:#181818;stroke-width:1;"/><line style="stroke:#181818;stroke-width:1;" x1="112.6646" x2="557.5474" y1="611.7422" y2="611.7422"/></g><g class="message" data-participant-1="right_mpu" data-participant-2="right_mpu"><line style="stroke:#181818;stroke-width:1;" x1="1487.7612" x2="1529.7612" y1="640.875" y2="640.875"/><line style="stroke:#181818;stroke-width:1;" x1="1529.7612" x2="1529.7612" y1="640.875" y2="653.875"/><line style="stroke:#181818;stroke-width:1;" x1="1488.7612" x2="1529.7612" y1="653.875" y2="653.875"/><polygon fill="#181818" points="1498.7612,649.875,1488.7612,653.875,1498.7612,657.875,1494.7612,653.875" style="stroke:#181818;stroke-width:1;"/><text fill="#000000" font-family="sans-serif" font-size="13" lengthAdjust="spacing" textLength="220.5684" x="1494.7612" y="635.8091">registerCallback(synth_controller)</text></g><g class="message" data-participant-1="right_mpu" data-participant-2="main"><polygon fill="#181818" points="118.6646,663.875,108.6646,667.875,118.6646,671.875,114.6646,667.875" style="stroke:#181818;stroke-width:1;"/><line style="stroke:#181818;stroke-width:1;" x1="112.6646" x2="1481.7612" y1="667.875" y2="667.875"/></g><g class="message" data-participant-1="musician" data-participant-2="left_input"><polygon fill="#181818" points="240.1206,708.1406,250.1206,712.1406,240.1206,716.1406,244.1206,712.1406" style="stroke:#181818;stroke-width:1;"/><line style="stroke:#181818;stroke-width:1;stroke-dasharray:2.0,2.0;" x1="43.5874" x2="246.1206" y1="712.1406" y2="712.1406"/><text fill="#000000" font-family="sans-serif" font-size="13" lengthAdjust="spacing" textLength="138.3599" x="50.5874" y="691.9419">Left controller button</text><text fill="#000000" font-family="sans-serif" font-size="13" lengthAdjust="spacing" textLength="163.103" x="50.5874" y="707.0747">(rising_event:GPIOEvent)</text></g><g class="message" data-participant-1="left_input" data-participant-2="left_input"><line style="stroke:#181818;stroke-width:1;" x1="262.1206" x2="304.1206" y1="741.2734" y2="741.2734"/><line style="stroke:#181818;stroke-width:1;" x1="304.1206" x2="304.1206" y1="741.2734" y2="754.2734"/><line style="stroke:#181818;stroke-width:1;" x1="263.1206" x2="304.1206" y1="754.2734" y2="754.2734"/><polygon fill="#181818" points="273.1206,750.2734,263.1206,754.2734,273.1206,758.2734,269.1206,754.2734" style="stroke:#181818;stroke-width:1;"/><text fill="#000000" font-family="sans-serif" font-size="13" lengthAdjust="spacing" textLength="267.4268" x="269.1206" y="736.2075">informCallbacks(rising_event:GPIOEvent)</text></g><g class="message" data-participant-1="left_input" data-participant-2="left_mpu"><polygon fill="#181818" points="842.9741,779.4063,852.9741,783.4063,842.9741,787.4063,846.9741,783.4063" style="stroke:#181818;stroke-width:1;"/><line style="stroke:#181818;stroke-width:1;" x1="262.1206" x2="848.9741" y1="783.4063" y2="783.4063"/><text fill="#000000" font-family="sans-serif" font-size="13" lengthAdjust="spacing" textLength="277.3101" x="269.1206" y="778.3403">leftMPU.hasEvent(rising_event:GPIOEvent)</text></g><g class="message" data-participant-1="left_mpu" data-participant-2="left_mpu"><line style="stroke:#181818;stroke-width:1;" x1="864.9741" x2="906.9741" y1="812.5391" y2="812.5391"/><line style="stroke:#181818;stroke-width:1;" x1="906.9741" x2="906.9741" y1="812.5391" y2="825.5391"/><line style="stroke:#181818;stroke-width:1;" x1="865.9741" x2="906.9741" y1="825.5391" y2="825.5391"/><polygon fill="#181818" points="875.9741,821.5391,865.9741,825.5391,875.9741,829.5391,871.9741,825.5391" style="stroke:#181818;stroke-width:1;"/><text fill="#000000" font-family="sans-serif" font-size="13" lengthAdjust="spacing" textLength="223.3232" x="871.9741" y="807.4731">hasEvent(rising_event:GPIOEvent)</text></g><path d="M768.3472,840.5391 L844.9712,840.5391 L844.9712,847.6719 L834.9712,857.6719 L768.3472,857.6719 L768.3472,840.5391" fill="#EEEEEE" style="stroke:#000000;stroke-width:1.5;"/><rect fill="none" height="289.0625" style="stroke:#000000;stroke-width:1.5;" width="1408.8174" x="768.3472" y="840.5391"/><text fill="#000000" font-family="sans-serif" font-size="13" font-weight="bold" lengthAdjust="spacing" textLength="31.624" x="783.3472" y="853.606">loop</text><text fill="#000000" font-family="sans-serif" font-size="11" font-weight="bold" lengthAdjust="spacing" textLength="130.6948" x="859.9712" y="852.7495">[while isRisingEvent]</text><g class="message" data-participant-1="left_mpu" data-participant-2="left_mpu"><line style="stroke:#181818;stroke-width:1;" x1="864.9741" x2="906.9741" y1="878.8047" y2="878.8047"/><line style="stroke:#181818;stroke-width:1;" x1="906.9741" x2="906.9741" y1="878.8047" y2="891.8047"/><line style="stroke:#181818;stroke-width:1;" x1="865.9741" x2="906.9741" y1="891.8047" y2="891.8047"/><polygon fill="#181818" points="875.9741,887.8047,865.9741,891.8047,875.9741,895.8047,871.9741,891.8047" style="stroke:#181818;stroke-width:1;"/><text fill="#000000" font-family="sans-serif" font-size="13" lengthAdjust="spacing" textLength="70.7446" x="871.9741" y="873.7388">readData()</text></g><g class="message" data-participant-1="left_mpu" data-participant-2="left_mpu"><line style="stroke:#181818;stroke-width:1;stroke-dasharray:2.0,2.0;" x1="864.9741" x2="906.9741" y1="920.9375" y2="920.9375"/><line style="stroke:#181818;stroke-width:1;stroke-dasharray:2.0,2.0;" x1="906.9741" x2="906.9741" y1="920.9375" y2="933.9375"/><line style="stroke:#181818;stroke-width:1;stroke-dasharray:2.0,2.0;" x1="865.9741" x2="906.9741" y1="933.9375" y2="933.9375"/><polygon fill="#181818" points="875.9741,929.9375,865.9741,933.9375,875.9741,937.9375,871.9741,933.9375" style="stroke:#181818;stroke-width:1;"/><text fill="#000000" font-family="sans-serif" font-size="13" lengthAdjust="spacing" textLength="94.0469" x="871.9741" y="915.8716">processInput()</text></g><path d="M778.3472,948.9375 L842.79,948.9375 L842.79,956.0703 L832.79,966.0703 L778.3472,966.0703 L778.3472,948.9375" fill="#EEEEEE" style="stroke:#000000;stroke-width:1.5;"/><rect fill="none" height="173.6641" style="stroke:#000000;stroke-width:1.5;" width="1146.1357" x="778.3472" y="948.9375"/><text fill="#000000" font-family="sans-serif" font-size="13" font-weight="bold" lengthAdjust="spacing" textLength="19.4429" x="793.3472" y="962.0044">alt</text><text fill="#000000" font-family="sans-serif" font-size="11" font-weight="bold" lengthAdjust="spacing" textLength="141.2544" x="857.79" y="961.1479">[if thresholdExceeded]</text><path d="M1929.4829,953.9375 L1929.4829,1008.9375 L2161.4829,1008.9375 L2161.4829,963.9375 L2151.4829,953.9375 L1929.4829,953.9375" fill="#FEFFDD" style="stroke:#181818;stroke-width:0.5;"/><path d="M2151.4829,953.9375 L2151.4829,963.9375 L2161.4829,963.9375 L2151.4829,953.9375" fill="#FEFFDD" style="stroke:#181818;stroke-width:0.5;"/><text fill="#000000" font-family="sans-serif" font-size="13" lengthAdjust="spacing" textLength="211.6816" x="1935.4829" y="971.0044">Asynchronously start processing</text><text fill="#000000" font-family="sans-serif" font-size="13" lengthAdjust="spacing" textLength="89.4194" x="1935.4829" y="986.1372">data from the</text><text fill="#000000" font-family="sans-serif" font-size="13" lengthAdjust="spacing" textLength="43.0815" x="1935.4829" y="1001.27">sensor</text><g class="message" data-participant-1="left_mpu" data-participant-2="left_mpu"><line style="stroke:#181818;stroke-width:1;" x1="864.9741" x2="906.9741" y1="987.2031" y2="987.2031"/><line style="stroke:#181818;stroke-width:1;" x1="906.9741" x2="906.9741" y1="987.2031" y2="1000.2031"/><line style="stroke:#181818;stroke-width:1;" x1="865.9741" x2="906.9741" y1="1000.2031" y2="1000.2031"/><polygon fill="#181818" points="875.9741,996.2031,865.9741,1000.2031,875.9741,1004.2031,871.9741,1000.2031" style="stroke:#181818;stroke-width:1;"/><text fill="#000000" font-family="sans-serif" font-size="13" lengthAdjust="spacing" textLength="143.749" x="871.9741" y="982.1372">informCallbacks(data)</text></g><g class="message" data-participant-1="left_mpu" data-participant-2="mode_controller"><polygon fill="#181818" points="1151.8677,1025.3359,1161.8677,1029.3359,1151.8677,1033.3359,1155.8677,1029.3359" style="stroke:#181818;stroke-width:1;"/><line style="stroke:#181818;stroke-width:1;" x1="864.9741" x2="1157.8677" y1="1029.3359" y2="1029.3359"/><text fill="#000000" font-family="sans-serif" font-size="13" lengthAdjust="spacing" textLength="279.8936" x="871.9741" y="1024.27">hasEvent(controllerEvent: ControllerEvent)</text></g><g class="message" data-participant-1="mode_controller" data-participant-2="mode_controller"><line style="stroke:#181818;stroke-width:1;" x1="1173.8677" x2="1215.8677" y1="1058.4688" y2="1058.4688"/><line style="stroke:#181818;stroke-width:1;" x1="1215.8677" x2="1215.8677" y1="1058.4688" y2="1071.4688"/><line style="stroke:#181818;stroke-width:1;" x1="1174.8677" x2="1215.8677" y1="1071.4688" y2="1071.4688"/><polygon fill="#181818" points="1184.8677,1067.4688,1174.8677,1071.4688,1184.8677,1075.4688,1180.8677,1071.4688" style="stroke:#181818;stroke-width:1;"/><text fill="#000000" font-family="sans-serif" font-size="13" lengthAdjust="spacing" textLength="279.8936" x="1180.8677" y="1053.4028">hasEvent(controllerEvent: ControllerEvent)</text></g><g class="message" data-participant-1="mode_controller" data-participant-2="synth_controller"><polygon fill="#181818" points="1774.6548,1096.6016,1784.6548,1100.6016,1774.6548,1104.6016,1778.6548,1100.6016" style="stroke:#181818;stroke-width:1;"/><line style="stroke:#181818;stroke-width:1;" x1="1173.8677" x2="1780.6548" y1="1100.6016" y2="1100.6016"/><text fill="#000000" font-family="sans-serif" font-size="13" lengthAdjust="spacing" textLength="273.1079" x="1180.8677" y="1095.5356">onEvent(controllerEvent: ControllerEvent)</text></g><g class="message" data-participant-1="synth_controller" data-participant-2="mode_controller"><polygon fill="#181818" points="1179.8677,1110.6016,1169.8677,1114.6016,1179.8677,1118.6016,1175.8677,1114.6016" style="stroke:#181818;stroke-width:1;"/><line style="stroke:#181818;stroke-width:1;stroke-dasharray:2.0,2.0;" x1="1173.8677" x2="1790.6548" y1="1114.6016" y2="1114.6016"/></g><g class="message" data-participant-1="musician" data-participant-2="right_input"><polygon fill="#181818" points="541.5474,1168.8672,551.5474,1172.8672,541.5474,1176.8672,545.5474,1172.8672" style="stroke:#181818;stroke-width:1;"/><line style="stroke:#181818;stroke-width:1;stroke-dasharray:2.0,2.0;" x1="43.5874" x2="547.5474" y1="1172.8672" y2="1172.8672"/><text fill="#000000" font-family="sans-serif" font-size="13" lengthAdjust="spacing" textLength="147.6782" x="50.5874" y="1152.6685">Right controller button</text><text fill="#000000" font-family="sans-serif" font-size="13" lengthAdjust="spacing" textLength="163.103" x="50.5874" y="1167.8013">(rising_event:GPIOEvent)</text></g><g class="message" data-participant-1="right_input" data-participant-2="right_input"><line style="stroke:#181818;stroke-width:1;" x1="563.5474" x2="605.5474" y1="1202" y2="1202"/><line style="stroke:#181818;stroke-width:1;" x1="605.5474" x2="605.5474" y1="1202" y2="1215"/><line style="stroke:#181818;stroke-width:1;" x1="564.5474" x2="605.5474" y1="1215" y2="1215"/><polygon fill="#181818" points="574.5474,1211,564.5474,1215,574.5474,1219,570.5474,1215" style="stroke:#181818;stroke-width:1;"/><text fill="#000000" font-family="sans-serif" font-size="13" lengthAdjust="spacing" textLength="267.4268" x="570.5474" y="1196.9341">informCallbacks(rising_event:GPIOEvent)</text></g><g class="message" data-participant-1="right_input" data-participant-2="right_mpu"><polygon fill="#181818" points="1465.7612,1240.1328,1475.7612,1244.1328,1465.7612,1248.1328,1469.7612,1244.1328" style="stroke:#181818;stroke-width:1;"/><line style="stroke:#181818;stroke-width:1;" x1="558.5474" x2="1471.7612" y1="1244.1328" y2="1244.1328"/><text fill="#000000" font-family="sans-serif" font-size="13" lengthAdjust="spacing" textLength="286.5713" x="565.5474" y="1239.0669">rightMPU.hasEvent(rising_event:GPIOEvent)</text></g><g class="message" data-participant-1="right_mpu" data-participant-2="right_mpu"><line style="stroke:#181818;stroke-width:1;" x1="1487.7612" x2="1529.7612" y1="1273.2656" y2="1273.2656"/><line style="stroke:#181818;stroke-width:1;" x1="1529.7612" x2="1529.7612" y1="1273.2656" y2="1286.2656"/><line style="stroke:#181818;stroke-width:1;" x1="1488.7612" x2="1529.7612" y1="1286.2656" y2="1286.2656"/><polygon fill="#181818" points="1498.7612,1282.2656,1488.7612,1286.2656,1498.7612,1290.2656,1494.7612,1286.2656" style="stroke:#181818;stroke-width:1;"/><text fill="#000000" font-family="sans-serif" font-size="13" lengthAdjust="spacing" textLength="223.3232" x="1494.7612" y="1268.1997">hasEvent(rising_event:GPIOEvent)</text></g><path d="M1386.1475,1301.2656 L1462.7715,1301.2656 L1462.7715,1308.3984 L1452.7715,1318.3984 L1386.1475,1318.3984 L1386.1475,1301.2656" fill="#EEEEEE" style="stroke:#000000;stroke-width:1.5;"/><rect fill="none" height="302.0625" style="stroke:#000000;stroke-width:1.5;" width="972.0825" x="1386.1475" y="1301.2656"/><text fill="#000000" font-family="sans-serif" font-size="13" font-weight="bold" lengthAdjust="spacing" textLength="31.624" x="1401.1475" y="1314.3325">loop</text><text fill="#000000" font-family="sans-serif" font-size="11" font-weight="bold" lengthAdjust="spacing" textLength="130.6948" x="1477.7715" y="1313.4761">[while isRisingEvent]</text><g class="message" data-participant-1="right_mpu" data-participant-2="right_mpu"><line style="stroke:#181818;stroke-width:1;stroke-dasharray:2.0,2.0;" x1="1487.7612" x2="1529.7612" y1="1339.5313" y2="1339.5313"/><line style="stroke:#181818;stroke-width:1;stroke-dasharray:2.0,2.0;" x1="1529.7612" x2="1529.7612" y1="1339.5313" y2="1352.5313"/><line style="stroke:#181818;stroke-width:1;stroke-dasharray:2.0,2.0;" x1="1488.7612" x2="1529.7612" y1="1352.5313" y2="1352.5313"/><polygon fill="#181818" points="1498.7612,1348.5313,1488.7612,1352.5313,1498.7612,1356.5313,1494.7612,1352.5313" style="stroke:#181818;stroke-width:1;"/><text fill="#000000" font-family="sans-serif" font-size="13" lengthAdjust="spacing" textLength="70.7446" x="1494.7612" y="1334.4653">readData()</text></g><g class="message" data-participant-1="right_mpu" data-participant-2="right_mpu"><line style="stroke:#181818;stroke-width:1;stroke-dasharray:2.0,2.0;" x1="1487.7612" x2="1529.7612" y1="1381.6641" y2="1381.6641"/><line style="stroke:#181818;stroke-width:1;stroke-dasharray:2.0,2.0;" x1="1529.7612" x2="1529.7612" y1="1381.6641" y2="1394.6641"/><line style="stroke:#181818;stroke-width:1;stroke-dasharray:2.0,2.0;" x1="1488.7612" x2="1529.7612" y1="1394.6641" y2="1394.6641"/><polygon fill="#181818" points="1498.7612,1390.6641,1488.7612,1394.6641,1498.7612,1398.6641,1494.7612,1394.6641" style="stroke:#181818;stroke-width:1;"/><text fill="#000000" font-family="sans-serif" font-size="13" lengthAdjust="spacing" textLength="94.0469" x="1494.7612" y="1376.5981">processInput()</text></g><path d="M1396.1475,1409.6641 L1460.5903,1409.6641 L1460.5903,1416.7969 L1450.5903,1426.7969 L1396.1475,1426.7969 L1396.1475,1409.6641" fill="#EEEEEE" style="stroke:#000000;stroke-width:1.5;"/><rect fill="none" height="186.6641" style="stroke:#000000;stroke-width:1.5;" width="709.4009" x="1396.1475" y="1409.6641"/><text fill="#000000" font-family="sans-serif" font-size="13" font-weight="bold" lengthAdjust="spacing" textLength="19.4429" x="1411.1475" y="1422.731">alt</text><text fill="#000000" font-family="sans-serif" font-size="11" font-weight="bold" lengthAdjust="spacing" textLength="141.2544" x="1475.5903" y="1421.8745">[if thresholdExceeded]</text><path d="M2110.5483,1414.6641 L2110.5483,1469.6641 L2342.5483,1469.6641 L2342.5483,1424.6641 L2332.5483,1414.6641 L2110.5483,1414.6641" fill="#FEFFDD" style="stroke:#181818;stroke-width:0.5;"/><path d="M2332.5483,1414.6641 L2332.5483,1424.6641 L2342.5483,1424.6641 L2332.5483,1414.6641" fill="#FEFFDD" style="stroke:#181818;stroke-width:0.5;"/><text fill="#000000" font-family="sans-serif" font-size="13" lengthAdjust="spacing" textLength="211.6816" x="2116.5483" y="1431.731">Asynchronously start processing</text><text fill="#000000" font-family="sans-serif" font-size="13" lengthAdjust="spacing" textLength="89.4194" x="2116.5483" y="1446.8638">data from the</text><text fill="#000000" font-family="sans-serif" font-size="13" lengthAdjust="spacing" textLength="47.2139" x="2116.5483" y="1461.9966">sensor.</text><g class="message" data-participant-1="right_mpu" data-participant-2="right_mpu"><line style="stroke:#181818;stroke-width:1;" x1="1487.7612" x2="1529.7612" y1="1447.9297" y2="1447.9297"/><line style="stroke:#181818;stroke-width:1;" x1="1529.7612" x2="1529.7612" y1="1447.9297" y2="1460.9297"/><line style="stroke:#181818;stroke-width:1;" x1="1488.7612" x2="1529.7612" y1="1460.9297" y2="1460.9297"/><polygon fill="#181818" points="1498.7612,1456.9297,1488.7612,1460.9297,1498.7612,1464.9297,1494.7612,1460.9297" style="stroke:#181818;stroke-width:1;"/><text fill="#000000" font-family="sans-serif" font-size="13" lengthAdjust="spacing" textLength="143.749" x="1494.7612" y="1442.8638">informCallbacks(data)</text></g><g class="message" data-participant-1="right_mpu" data-participant-2="synth_controller"><polygon fill="#181818" points="1774.6548,1486.0625,1784.6548,1490.0625,1774.6548,1494.0625,1778.6548,1490.0625" style="stroke:#181818;stroke-width:1;"/><line style="stroke:#181818;stroke-width:1;" x1="1487.7612" x2="1780.6548" y1="1490.0625" y2="1490.0625"/><text fill="#000000" font-family="sans-serif" font-size="13" lengthAdjust="spacing" textLength="279.8936" x="1494.7612" y="1484.9966">hasEvent(controllerEvent: ControllerEvent)</text></g><g class="message" data-participant-1="synth_controller" data-participant-2="synth_controller"><line style="stroke:#181818;stroke-width:1;" x1="1796.6548" x2="1838.6548" y1="1519.1953" y2="1519.1953"/><line style="stroke:#181818;stroke-width:1;" x1="1838.6548" x2="1838.6548" y1="1519.1953" y2="1532.1953"/><line style="stroke:#181818;stroke-width:1;" x1="1797.6548" x2="1838.6548" y1="1532.1953" y2="1532.1953"/><polygon fill="#181818" points="1807.6548,1528.1953,1797.6548,1532.1953,1807.6548,1536.1953,1803.6548,1532.1953" style="stroke:#181818;stroke-width:1;"/><text fill="#000000" font-family="sans-serif" font-size="13" lengthAdjust="spacing" textLength="279.8936" x="1803.6548" y="1514.1294">hasEvent(controllerEvent: ControllerEvent)</text></g><g class="message" data-participant-1="synth_controller" data-participant-2="synth_controller"><line style="stroke:#181818;stroke-width:1;" x1="1796.6548" x2="1838.6548" y1="1561.3281" y2="1561.3281"/><line style="stroke:#181818;stroke-width:1;" x1="1838.6548" x2="1838.6548" y1="1561.3281" y2="1574.3281"/><line style="stroke:#181818;stroke-width:1;" x1="1797.6548" x2="1838.6548" y1="1574.3281" y2="1574.3281"/><polygon fill="#181818" points="1807.6548,1570.3281,1797.6548,1574.3281,1807.6548,1578.3281,1803.6548,1574.3281" style="stroke:#181818;stroke-width:1;"/><text fill="#000000" font-family="sans-serif" font-size="13" lengthAdjust="spacing" textLength="273.1079" x="1803.6548" y="1556.2622">onEvent(controllerEvent: ControllerEvent)</text></g><g class="message" data-participant-1="synth_controller" data-participant-2="right_mpu"><polygon fill="#181818" points="1498.7612,1584.3281,1488.7612,1588.3281,1498.7612,1592.3281,1494.7612,1588.3281" style="stroke:#181818;stroke-width:1;"/><line style="stroke:#181818;stroke-width:1;stroke-dasharray:2.0,2.0;" x1="1492.7612" x2="1790.6548" y1="1588.3281" y2="1588.3281"/></g><line style="stroke:#A80036;stroke-width:2;" x1="29.5874" x2="47.5874" y1="1610.3281" y2="1628.3281"/><line style="stroke:#A80036;stroke-width:2;" x1="29.5874" x2="47.5874" y1="1628.3281" y2="1610.3281"/><line style="stroke:#A80036;stroke-width:2;" x1="1159.8677" x2="1177.8677" y1="1628.3281" y2="1646.3281"/><line style="stroke:#A80036;stroke-width:2;" x1="1159.8677" x2="1177.8677" y1="1646.3281" y2="1628.3281"/><line style="stroke:#A80036;stroke-width:2;" x1="248.1206" x2="266.1206" y1="1646.3281" y2="1664.3281"/><line style="stroke:#A80036;stroke-width:2;" x1="248.1206" x2="266.1206" y1="1664.3281" y2="1646.3281"/><line style="stroke:#A80036;stroke-width:2;" x1="850.9741" x2="868.9741" y1="1664.3281" y2="1682.3281"/><line style="stroke:#A80036;stroke-width:2;" x1="850.9741" x2="868.9741" y1="1682.3281" y2="1664.3281"/><line style="stroke:#A80036;stroke-width:2;" x1="1782.6548" x2="1800.6548" y1="1682.3281" y2="1700.3281"/><line style="stroke:#A80036;stroke-width:2;" x1="1782.6548" x2="1800.6548" y1="1700.3281" y2="1682.3281"/><line style="stroke:#A80036;stroke-width:2;" x1="549.5474" x2="567.5474" y1="1700.3281" y2="1718.3281"/><line style="stroke:#A80036;stroke-width:2;" x1="549.5474" x2="567.5474" y1="1718.3281" y2="1700.3281"/><line style="stroke:#A80036;stroke-width:2;" x1="1473.7612" x2="1491.7612" y1="1718.3281" y2="1736.3281"/><line style="stroke:#A80036;stroke-width:2;" x1="1473.7612" x2="1491.7612" y1="1736.3281" y2="1718.3281"/><line style="stroke:#A80036;stroke-width:2;" x1="93.6646" x2="111.6646" y1="1736.3281" y2="1754.3281"/><line style="stroke:#A80036;stroke-width:2;" x1="93.6646" x2="111.6646" y1="1754.3281" y2="1736.3281"/><!--SRC=[hLOxRzim4DxrAmwPui56bdOG30Ej6mG1QZH8qSs0mKYqHKGY3P9AwdzVKXB5XoX7Jkt184zttntlyP4eaup3fXOa8uW24b1rwoJ9E4OIGyQevAo42X4bH9aaRrhSRZkTcnBlvOxGOorJ-5vBoUYD1hFYHEl3VBu2LtMvR05MAmlisDWb18Q78s7vhYGKx_0RfdBtZeYydIKSovhJ9CSnk3vQJWv5B5n7RkFrb6C1krRE6aBRwJ6xY5wADqz_Kb1_N- - -tDa4LySwIA-IW1TiZrAn7E-wafQOfnkrN_VR1ZDGiT2XhUV0JxWEgO_4YIe5ZWz4ICpNg2nVKFPw6w3EMd_BkGKAgwbb5_RBm6kNpS1R2pFIFNxx34hH5ishHI-ArqASg2oyXFxMag0SePQ57zf72pArFmSvCkUqINAXnleraEg4z2jmam8Hb-6HGjT1ErYXGqmzWPdLW7P-gZLO9_3IKC2MgXCBGW_jUAOFJu-_xlLgTc6p4Rfdl39d4gEe4OIcLxhUN1H8D9eJmngREPNd3v7YBLyoTeJtWfGOY7XkJ1lz1DJFm0VJZV8VI295QwwEnqmf73dBi12FsacdYKe9P0-ou5WKhCpl_sOOvpXlFeww2pETAzUpWGd4kAjFYHKs-nJMli3YsHOB6D8e1F9h-Ot03aUVqKyVPy0mHgExcVgzqoMZDevEB4sOjYMbp8nl2jyKM5PmHbajoXC8YRWqFQ9QRajrMM7FMQNw0s-fm5GmdcYewDNW3xx7SSzwyxdHdqgZKwS_Yj4EKSUxYql6rWrlCWLFO8Rp9E301cVmYM1KBw22QLmmTfZpTE1P3GVeVmXXT1h23rTpFGtuSbBeHdxgnEiPlD8yByA1FdFZTqyDbslChPzZeG8yES-0NXBGaP5xBpz7r729aGnERpxuJo9NvjdhPym_]--></g></svg>